<?xml version="1.0" standalone="no"?>
<!DOCTYPE svg PUBLIC "-//W3C//DTD SVG 20010904//EN"
 "http://www.w3.org/TR/2001/REC-SVG-20010904/DTD/svg10.dtd">
<svg version="1.0" xmlns="http://www.w3.org/2000/svg"
 width="500.000000pt" height="500.000000pt" viewBox="0 0 500.000000 500.000000"
 preserveAspectRatio="xMidYMid meet">

<g transform="translate(0.000000,500.000000) scale(0.100000,-0.100000)"
fill="#ffffff" stroke="none">
<path d="M2270 4390 c-332 -47 -627 -164 -910 -364 -104 -73 -290 -253 -375
-361 -193 -247 -327 -531 -384 -811 -88 -434 -32 -870 159 -1250 218 -433 587
-762 1049 -936 218 -82 418 -118 664 -118 314 0 584 64 883 210 197 97 330
193 500 364 217 217 344 424 439 711 167 503 137 997 -90 1460 -119 245 -252
423 -455 609 -243 222 -611 405 -943 467 -126 24 -426 34 -537 19z m413 -175
c532 -70 1001 -377 1290 -845 104 -170 193 -407 227 -608 45 -258 18 -603 -65
-858 -80 -245 -280 -584 -345 -584 -34 0 -43 25 -24 67 13 29 18 76 22 203 4
154 5 166 26 180 48 34 109 97 129 135 19 35 22 60 25 198 3 112 0 168 -9 190
-23 59 -71 119 -118 148 l-46 30 -5 177 c-5 171 -6 179 -34 237 -34 69 -96
133 -155 159 -31 14 -41 25 -41 42 0 13 -62 137 -138 276 -76 139 -169 310
-207 380 -78 147 -99 170 -150 170 -29 0 -47 -10 -96 -52 l-61 -53 -84 84
c-75 75 -87 83 -120 82 -31 -1 -47 -11 -106 -70 l-69 -68 -129 132 c-128 132
-156 151 -197 136 -12 -4 -108 -93 -215 -198 l-193 -190 -69 -18 c-201 -52
-396 -190 -507 -355 -82 -124 -78 -67 -81 -1049 -3 -809 -4 -874 -20 -889 -16
-17 -18 -17 -38 1 -56 51 -186 289 -239 438 -61 173 -84 290 -100 503 -42 554
206 1127 639 1477 389 314 848 452 1303 392z m-365 -418 l82 -83 -52 -50 c-29
-27 -65 -60 -80 -73 l-27 -23 -32 23 c-61 43 -162 21 -195 -44 -23 -43 -22
-106 2 -146 l19 -33 -115 -108 c-128 -120 -137 -122 -126 -22 20 176 78 299
203 427 76 79 222 215 230 215 5 0 45 -37 91 -83z m420 -77 c12 -16 22 -31 22
-34 0 -3 -129 -122 -287 -264 -159 -143 -301 -274 -317 -291 -25 -26 -37 -31
-78 -31 -26 0 -48 4 -48 8 0 7 185 185 584 564 44 42 86 77 92 78 5 0 20 -13
32 -30z m458 -304 c145 -264 144 -260 93 -298 -22 -17 -53 -18 -463 -16 l-439
3 316 282 c174 156 319 288 323 294 11 18 26 -4 170 -265z m-1550 2 c-24 -71
-37 -165 -35 -242 l2 -71 -113 -3 c-89 -2 -118 1 -136 13 -56 36 -16 125 106
238 68 63 182 134 188 117 2 -5 -3 -28 -12 -52z m468 -504 c9 -8 16 -28 16
-44 0 -59 -4 -60 -314 -60 -272 0 -283 -1 -326 -22 -30 -16 -53 -37 -70 -68
-21 -36 -32 -46 -57 -48 -62 -6 -80 47 -42 125 23 49 66 88 124 114 36 17 71
19 347 19 266 0 309 -2 322 -16z m947 6 c13 -7 19 -21 19 -45 0 -67 12 -65
-425 -65 l-394 0 -15 22 c-21 30 -20 54 4 78 19 19 33 20 406 20 246 0 392 -4
405 -10z m452 -23 c26 -15 60 -47 75 -69 26 -40 27 -48 30 -185 l3 -143 -59 0
-60 0 -4 114 c-3 106 -5 116 -28 142 -38 41 -80 54 -174 54 -80 0 -87 2 -102
25 -17 26 -13 55 13 81 14 13 36 15 137 12 111 -3 125 -5 169 -31z m-1222
-343 c87 -26 149 -62 209 -123 230 -230 161 -628 -134 -771 -286 -138 -622 41
-676 361 -38 223 108 459 328 530 73 23 200 25 273 3z m1445 -260 c61 -45 69
-67 69 -179 0 -115 -9 -138 -75 -182 -32 -22 -40 -23 -295 -23 l-261 0 -46 29
c-64 41 -92 100 -86 186 5 81 42 139 108 173 44 22 51 23 302 20 241 -3 258
-4 284 -24z m-116 -684 c0 -145 -7 -174 -61 -235 -55 -62 -116 -85 -232 -85
-54 0 -107 4 -117 10 -26 14 -34 57 -16 85 13 20 24 23 113 27 159 6 193 44
193 215 0 55 3 103 7 106 3 4 30 7 60 7 l53 0 0 -130z m-2212 -82 c31 -58 75
-99 117 -108 22 -5 162 -10 311 -10 196 0 273 -3 282 -12 17 -17 15 -74 -4
-93 -15 -14 -51 -16 -328 -13 -343 3 -341 3 -414 72 -89 83 -95 196 -10 196
22 0 33 -7 46 -32z m1656 -134 c21 -20 20 -63 -1 -86 -15 -17 -41 -18 -405
-18 -375 0 -389 1 -408 20 -24 24 -25 48 -4 78 l15 22 394 0 c344 0 396 -2
409 -16z m454 -290 c12 -8 22 -20 22 -25 0 -15 -173 -124 -285 -179 -130 -64
-272 -112 -432 -146 -117 -26 -146 -28 -343 -29 -188 0 -229 3 -330 24 -225
46 -425 125 -616 244 -116 72 -126 83 -95 108 22 18 59 19 1040 19 904 0 1019
-2 1039 -16z"/>
<path d="M2854 3410 c-29 -11 -71 -64 -79 -98 -16 -77 49 -152 133 -152 38 0
50 5 83 39 35 35 39 44 39 88 0 95 -90 158 -176 123z"/>
<path d="M1922 2328 c-7 -7 -12 -19 -12 -28 0 -34 22 -40 142 -40 105 0 120
-2 138 -20 11 -11 20 -24 20 -30 0 -5 -60 -11 -147 -12 l-148 -3 0 -30 0 -30
147 -5 c80 -3 149 -8 152 -11 3 -3 -3 -14 -15 -25 -18 -16 -41 -20 -148 -24
l-126 -5 -3 -114 c-3 -118 4 -141 39 -141 32 0 49 39 49 112 l0 68 58 0 57 0
108 -91 c88 -74 112 -90 131 -85 13 3 26 15 29 27 6 23 -6 38 -102 121 l-54
46 36 36 c52 52 59 113 22 199 -6 15 -1 17 48 17 31 0 62 3 71 6 19 7 21 45 4
62 -17 17 -479 17 -496 0z"/>
<path d="M3195 2175 c-38 -37 -35 -95 7 -130 38 -32 81 -29 116 11 50 57 12
144 -63 144 -25 0 -44 -8 -60 -25z"/>
</g>
</svg>
